<?xml version="1.0" encoding="utf-8"?>
<!-- Generator: Adobe Illustrator 19.2.1, SVG Export Plug-In . SVG Version: 6.00 Build 0)  -->
<svg version="1.0" id="Layer_1" xmlns="http://www.w3.org/2000/svg" xmlns:xlink="http://www.w3.org/1999/xlink" x="0px" y="0px"
	 width="220.8px" height="36px" viewBox="0 0 220.8 36" enable-background="new 0 0 220.8 36" xml:space="preserve">
<desc>Flag of Germany</desc>
<g>
	<g>
		<path d="M3.2,21.6v1.8c0,1.8,2.3,2.9,4.9,2.9c2.8,0,4.9-1.3,4.9-3.8c0-2.9-2.9-3.8-5.9-5c-3.2-1.2-6.6-2.6-6.6-7
			C0.5,5.9,4.3,4,8.4,4c3.7,0,7.5,1.4,7.5,4.1v2.9h-3.2V9.2c0-1.4-2.2-2.2-4.2-2.2C6,7,4.1,8.1,4.1,10.4c0,2.6,2.5,3.5,5.2,4.5
			c3.6,1.4,7.2,2.8,7.2,7.3c0,4.7-3.8,7.2-8.4,7.2c-3.8,0-8.1-1.7-8.1-5.2v-2.6H3.2z"/>
		<path d="M19.8,26.4h2.8V14.7c0-0.5-0.3-0.7-0.8-0.7h-2.2v-2.6h4c1.5,0,2.2,0.7,2.2,2v0.9c0,0.6-0.1,1-0.1,1h0.1
			c0.9-2.1,3.4-4.3,6.3-4.3c2.8,0,4.6,1.3,5.2,4.2h0.1c1-2.2,3.4-4.2,6.3-4.2c3.9,0,5.8,2.3,5.8,6.8v8.7h2.8V29H46V18.4
			c0-2.5-0.5-4.4-3.1-4.4c-3.3,0-5.2,3.4-5.2,6.9v5.5h2.8V29h-6.1V18.4c0-2.3-0.3-4.4-3.1-4.4c-3.3,0-5.3,3.6-5.3,7v5.4h2.8V29h-8.9
			V26.4z"/>
		<path d="M64.5,18.2h1.1v-0.7c0-2.8-1.6-3.8-3.8-3.8c-2.8,0-5.1,1.7-5.1,1.7L55.4,13c0,0,2.6-2.1,6.7-2.1c4.5,0,6.9,2.3,6.9,6.8
			v7.9c0,0.5,0.3,0.8,0.8,0.8h1.8V29H68c-1.6,0-2.2-0.8-2.2-1.9v-0.2c0-0.7,0.1-1.2,0.1-1.2h-0.1c0,0-1.5,3.7-5.8,3.7
			c-2.9,0-5.9-1.7-5.9-5.3C54.2,18.5,61.6,18.2,64.5,18.2z M60.8,26.8c3,0,4.8-3.1,4.8-5.7v-0.7h-0.9c-1.6,0-7.2,0.1-7.2,3.5
			C57.6,25.4,58.8,26.8,60.8,26.8z"/>
		<path d="M74.2,26.4h2.7V14.7c0-0.5-0.3-0.8-0.8-0.8h-2.2v-2.6h4c1.5,0,2.3,0.6,2.3,2.1v1.1c0,0.7-0.1,1.2-0.1,1.2h0.1
			c0.8-2.6,2.9-4.6,5.6-4.6c0.5,0,0.9,0.1,0.9,0.1v3.3c0,0-0.4-0.1-1-0.1c-3.8,0-5.4,3.8-5.4,7.3v4.7h2.6V29h-8.7V26.4z"/>
		<path d="M90.8,14h-3v-2.6h3V6.5h3.3v4.8h4.2V14h-4.2v8.3c0,3.6,2.4,4,3.8,4c0.5,0,0.8,0,0.8,0v2.8c0,0-0.5,0.1-1.2,0.1
			c-2.2,0-6.7-0.7-6.7-6.6V14z"/>
	</g>
	<g>
		<g>
			<path d="M132.1,14h-3v-2.6h6.3V22c0,2.4,0.5,4.4,3.3,4.4c3.5,0,5.7-3.4,5.7-6.9V14h-3v-2.6h6.3v14.3c0,0.5,0.3,0.8,0.8,0.8h1.8
				V29h-3.7c-1.5,0-2.2-0.7-2.2-2v-0.8c0-0.6,0.1-1,0.1-1h-0.1c-0.3,0.9-2.3,4.2-6.7,4.2c-3.8,0-5.8-2.1-5.8-6.8V14z"/>
			<path d="M155,14h-3v-2.6h3V6.5h3.3v4.8h4.2V14h-4.2v8.3c0,3.6,2.4,4,3.8,4c0.5,0,0.8,0,0.8,0v2.8c0,0-0.5,0.1-1.2,0.1
				c-2.2,0-6.7-0.7-6.7-6.6V14z"/>
			<path d="M167.9,33.4V14.7c0-0.5-0.3-0.8-0.8-0.8H165v-2.6h3.9c1.6,0,2.2,0.7,2.2,1.7v0.1c0,0.6-0.1,1-0.1,1h0.1
				c0,0,1.5-3.3,5.9-3.3c4.7,0,7.7,3.8,7.7,9.2c0,5.6-3.4,9.2-8,9.2c-3.9,0-5.5-3-5.5-3h-0.1c0,0,0.1,0.6,0.1,1.5v5.4h2.8V36h-8.9
				v-2.6H167.9z M176.2,26.5c2.8,0,5.1-2.3,5.1-6.3c0-3.8-2.1-6.3-5-6.3c-2.6,0-5.1,1.8-5.1,6.3C171.2,23.4,172.9,26.5,176.2,26.5z"
				/>
			<path d="M189.8,14h-3v-2.6h6.3V22c0,2.4,0.5,4.4,3.3,4.4c3.5,0,5.7-3.4,5.7-6.9V14h-3v-2.6h6.3v14.3c0,0.5,0.3,0.8,0.8,0.8h1.8
				V29h-3.7c-1.5,0-2.2-0.7-2.2-2v-0.8c0-0.6,0.1-1,0.1-1h-0.1c-0.3,0.9-2.3,4.2-6.7,4.2c-3.8,0-5.8-2.1-5.8-6.8V14z"/>
			<path d="M212.8,14h-3v-2.6h3V6.5h3.3v4.8h4.2V14h-4.2v8.3c0,3.6,2.4,4,3.8,4c0.5,0,0.8,0,0.8,0v2.8c0,0-0.5,0.1-1.2,0.1
				c-2.2,0-6.7-0.7-6.7-6.6V14z"/>
			<path d="M114.1,4c-7.2,0-12.7,5.5-12.7,12.6c0,2.5,0.6,4.8,1.8,6.7c1.2,2,2.9,3.7,5.1,4.8l2.4-2.4l5.9-6.1l2.3,2.2l-0.2-9.4
				l-9.4,0.2l2.3,2.2l-5.7,5.9c-0.5-1.2-0.8-2.6-0.8-4c0-5.4,4-9.5,9.1-9.5c5,0,9,4.1,9,9.5c0,5.5-4,9.8-9,9.8
				c-0.8,0-1.6-0.1-2.3-0.3l-2.2,2.6c1.4,0.5,2.9,0.8,4.5,0.8c7.1,0,12.7-5.7,12.7-12.9C126.7,9.4,121.2,4,114.1,4z"/>
		</g>
		<circle cx="125.8" cy="3.1" r="3.1"/>
	</g>
</g>
</svg>
